<svg width="18" height="18" viewBox="0 0 18 18" fill="none" xmlns="http://www.w3.org/2000/svg">
<path d="M17.3334 5.03318C17.3341 4.92351 17.313 4.81479 17.2716 4.71326C17.2301 4.61173 17.169 4.51938 17.0918 4.44152L13.5584 0.908184C13.4806 0.83095 13.3882 0.769846 13.2867 0.728375C13.1852 0.686905 13.0764 0.665884 12.9668 0.666518C12.8571 0.665884 12.7484 0.686905 12.6468 0.728375C12.5453 0.769846 12.453 0.83095 12.3751 0.908184L10.0168 3.26652L0.908429 12.3749C0.831194 12.4527 0.77009 12.5451 0.728619 12.6466C0.687149 12.7481 0.666128 12.8568 0.666762 12.9665V16.4999C0.666762 16.7209 0.754559 16.9328 0.91084 17.0891C1.06712 17.2454 1.27908 17.3332 1.5001 17.3332H5.03343C5.15003 17.3395 5.26667 17.3213 5.37578 17.2797C5.48488 17.238 5.58402 17.1739 5.66676 17.0915L14.7251 7.98318L17.0918 5.66652C17.1678 5.58575 17.2298 5.49279 17.2751 5.39152C17.2831 5.32509 17.2831 5.25794 17.2751 5.19152C17.279 5.15273 17.279 5.11364 17.2751 5.07485L17.3334 5.03318ZM4.69176 15.6665H2.33343V13.3082L10.6084 5.03318L12.9668 7.39152L4.69176 15.6665ZM14.1418 6.21652L11.7834 3.85818L12.9668 2.68318L15.3168 5.03318L14.1418 6.21652Z" fill="#929292"/>
</svg>
